<svg width="30" height="30" viewBox="0 0 30 30" fill="current" xmlns="http://www.w3.org/2000/svg">
    <g clip-path="url(#clip0)">
        <path d="M5.5384 0.500198H24.4615C27.2441 0.500198 29.4999 2.75599 29.4999 5.53866V24.4617C29.4999 27.2444 27.2441 29.5002 24.4615 29.5002H5.5384C2.75573 29.5002 0.499939 27.2444 0.499939 24.4617V5.53866C0.499939 2.75599 2.75573 0.500198 5.5384 0.500198Z" fill="#03045E" stroke="white" />
        <path d="M24.4615 23.077H5.07693V25.8462H24.4615V23.077Z" fill="current" />
        <path d="M10.6153 10.6159C10.6153 9.85109 9.99509 9.23129 9.23078 9.23129C8.46647 9.23129 7.8463 9.85109 7.8463 10.6159V16.1535C7.8463 16.9183 8.46606 17.5381 9.23078 17.5381C9.9955 17.5381 10.6153 16.9183 10.6153 16.1535H13.3846C13.3846 18.4483 11.5241 20.3078 9.23078 20.3078C6.93744 20.3078 5.07693 18.4479 5.07693 16.1535V10.6159C5.07693 8.32192 6.93744 6.46164 9.23078 6.46164C11.5241 6.46164 13.3846 8.32192 13.3846 10.6159H10.6153Z" fill="current" />
        <path d="M21.6074 6.46164H24.4615L21.0001 20.3078H18.2307L14.7692 6.46164H17.6238L19.6156 14.4284L21.6074 6.46164Z" fill="current" />
    </g>
    <defs>
        <clipPath id="clip0">
            <rect width="30" height="30" fill="current" />
        </clipPath>
    </defs>
</svg>
