<svg width="30" height="30" viewBox="0 0 30 30" fill="current" xmlns="http://www.w3.org/2000/svg">
    <g clip-path="url(#clip0)">
        <path fill-rule="evenodd" clip-rule="evenodd" d="M0 27.2597V2.74034C0 1.2289 1.22745 0 2.73989 0H27.2601C28.7713 0 30 1.2289 30 2.74034V27.2597C30 28.7723 28.7713 30 27.2601 30H2.73989C1.22745 30 0 28.7723 0 27.2597ZM29.0625 27.2597V2.74034C29.0625 1.74772 28.2526 0.937618 27.2601 0.937618H2.73989C1.74618 0.937618 0.937461 1.74772 0.937461 2.74034V27.2597C0.937461 28.2535 1.74618 29.0624 2.73989 29.0624H27.2601C28.2526 29.0624 29.0625 28.2535 29.0625 27.2597Z" fill="current" />
        <path fill-rule="evenodd" clip-rule="evenodd" d="M3.97858 23.2191C3.55735 22.9554 3.78859 22.2978 4.28232 22.3565C4.62356 22.3965 4.97354 22.4153 5.32603 22.4153C6.86596 22.4153 8.3134 22.0315 9.57335 21.3564L9.78209 21.2351L9.45835 21.1514C7.96467 20.6401 6.78597 19.4637 6.30099 17.9785C6.21724 17.7235 6.36223 17.4722 6.58847 17.3909L6.79972 17.3759L6.42848 17.1134C5.34728 16.2033 4.66105 14.8556 4.66105 13.3454V13.2879C4.66105 12.9341 5.03979 12.7078 5.35228 12.8766L5.65476 13.0129C5.04979 12.1865 4.6973 11.1864 4.6973 10.105C4.6973 9.19489 4.94729 8.33603 5.38852 7.60219C5.55477 7.32716 5.9435 7.29715 6.14974 7.54344C8.06716 9.83997 10.8158 11.4502 13.9482 11.939L14.7319 12.019L14.7031 11.5189C14.7031 8.76609 16.9893 6.54956 19.7817 6.54956C20.8741 6.54956 21.8891 6.8896 22.7191 7.46468L23.2678 7.93223L23.794 7.80722C24.519 7.60344 25.204 7.31216 25.8389 6.94586C26.2102 6.73083 26.6514 7.08963 26.5189 7.49718C26.3377 8.051 26.0964 8.59107 25.7652 9.07113L25.5102 9.37241L26.7451 9.32616C27.1289 9.31116 27.3664 9.74246 27.1489 10.06C26.6239 10.8226 25.9752 11.1026 25.3177 11.4514L24.8702 11.7202L24.879 12.0415C24.879 18.201 20.0754 25.3132 11.2933 25.3132C8.59964 25.3132 6.0885 24.5418 3.97858 23.2191ZM23.9415 12.0415C23.9415 11.8565 23.9365 11.669 23.9265 11.4839C23.9178 11.3227 23.9928 11.1689 24.1252 11.0764C24.6302 10.7201 25.0577 10.5301 25.4414 10.3213L24.2477 10.3563C23.764 10.375 23.5753 9.72871 23.994 9.48368C24.4002 9.2449 24.7277 8.92361 24.994 8.53856L25.1077 8.33853L24.834 8.45355C24.3202 8.64607 23.7865 8.79734 23.2353 8.90235C23.0803 8.93236 22.919 8.8811 22.809 8.76734C22.0528 7.98099 20.9779 7.48718 19.7817 7.48718C17.4855 7.48718 15.6406 9.30491 15.6406 11.5189C15.6406 11.834 15.6781 12.1428 15.7481 12.439C15.8193 12.7416 15.5794 13.0291 15.2681 13.0141C11.7995 12.8441 8.67214 11.4039 6.36723 9.15614L5.91225 8.66608L5.77976 9.04112C5.68476 9.37992 5.63476 9.73746 5.63476 10.105C5.63476 11.4977 6.36098 12.7328 7.47344 13.4604C7.86842 13.718 7.67218 14.3368 7.20095 14.3205C6.78597 14.3068 6.38348 14.2443 5.9985 14.1393L5.66101 14.0417C5.95975 15.677 7.25345 16.9709 8.91838 17.2972C9.40336 17.3922 9.42586 18.0835 8.94713 18.2098C8.52089 18.3223 8.07341 18.3823 7.61343 18.3823L7.49969 18.3723L7.76093 18.7948C8.49589 19.8012 9.69585 20.4663 11.0608 20.4913C11.5033 20.4988 11.6883 21.0639 11.337 21.3314C10.0921 22.2828 8.60714 22.9441 6.98721 23.2154L6.18099 23.3167L6.83471 23.5842C8.21966 24.0943 9.72209 24.3755 11.2933 24.3755C19.4692 24.3755 23.9415 17.7747 23.9415 12.0415Z" fill="current" />
    </g>
    <defs>
        <clipPath id="clip0">
            <rect width="30" height="30" fill="current" />
        </clipPath>
    </defs>
</svg>
