<svg width="30" height="30" viewBox="0 0 30 30" fill="none" xmlns="http://www.w3.org/2000/svg">
    <g clip-path="url(#clip0)">
        <path d="M5.5384 0.500183H24.4615C27.2441 0.500183 29.4999 2.75598 29.4999 5.53864V24.4617C29.4999 27.2444 27.2441 29.5002 24.4615 29.5002H5.5384C2.75573 29.5002 0.499939 27.2444 0.499939 24.4617V5.53864C0.499939 2.75598 2.75573 0.500183 5.5384 0.500183Z" fill="#03045E" stroke="white" />
        <path d="M15.0341 26C12.3729 26 9.8207 24.8937 7.93893 22.9246C6.05716 20.9555 5 18.2848 5 15.5C5 12.7152 6.05716 10.0445 7.93893 8.07538C9.8207 6.10625 12.3729 5 15.0341 5C20.7278 5 23.9932 8.2805 23.9932 14V14.375C24.0489 15.6456 23.7617 16.907 23.1643 18.0147C22.854 18.5922 22.4017 19.0723 21.8543 19.4052C21.3069 19.7381 20.6843 19.9116 20.0512 19.9077C18.6224 19.9077 16.9539 19.0452 16.9539 16.6186V16.5811L17.1689 12.1021C16.9921 12.0656 16.8091 12.0327 16.6199 12.0035C16.1336 11.9253 15.6426 11.883 15.1506 11.8771C14.7025 11.8505 14.2543 11.9275 13.8378 12.1025C13.4213 12.2774 13.0467 12.5462 12.7406 12.8896C12.0885 13.6705 11.7541 14.6873 11.8089 15.7227C11.7566 16.5402 11.9762 17.3513 12.4306 18.0185C12.6208 18.2509 12.8607 18.4332 13.1308 18.5505C13.4009 18.6678 13.6936 18.7168 13.9852 18.6935C14.4113 18.7099 14.8323 18.5924 15.194 18.356C15.2726 18.3018 15.3607 18.2644 15.4531 18.2458C15.5456 18.2273 15.6406 18.228 15.7329 18.2478C15.8251 18.2677 15.9126 18.3064 15.9906 18.3617C16.0685 18.417 16.1352 18.4878 16.187 18.5701C16.2388 18.6524 16.2745 18.7446 16.2923 18.8413C16.31 18.9381 16.3093 19.0375 16.2903 19.134C16.2713 19.2305 16.2344 19.3221 16.1815 19.4037C16.1287 19.4852 16.061 19.5551 15.9824 19.6092C15.3878 20.0089 14.692 20.212 13.9856 20.192C13.4821 20.2161 12.98 20.1184 12.5185 19.9063C12.057 19.6943 11.6485 19.3737 11.3247 18.9695C10.6947 18.1726 10.3754 17.0795 10.3754 15.7227C10.314 14.308 10.7864 12.9247 11.6906 11.8711C12.1319 11.3775 12.6693 10.9886 13.2665 10.7309C13.8637 10.4732 14.5068 10.3525 15.1524 10.3771C15.7136 10.3831 16.2737 10.4306 16.8285 10.5192C17.2565 10.5836 17.6809 10.6726 18.0996 10.7859L18.6622 10.9411L18.3873 16.6366C18.3952 18.1767 19.432 18.4077 20.0512 18.4077C20.4233 18.4083 20.7891 18.3077 21.1128 18.1156C21.4365 17.9236 21.7069 17.6468 21.8975 17.3124C22.387 16.4217 22.6172 15.4007 22.5597 14.375V14C22.5597 9.1625 19.8871 6.5 15.0341 6.5C13.6273 6.49995 12.2418 6.86104 10.9994 7.55163C9.75687 8.24222 8.69525 9.24121 7.90756 10.461C7.11986 11.6808 6.63016 13.0842 6.48137 14.5482C6.33258 16.0121 6.52926 17.4919 7.05415 18.8578C7.57904 20.2237 8.41612 21.434 9.49201 22.3826C10.5679 23.3312 11.8497 23.9891 13.2252 24.2987C14.6006 24.6083 16.0276 24.5601 17.3811 24.1583C18.7345 23.7566 19.9731 23.0135 20.9883 21.9942C21.0563 21.926 21.1364 21.8725 21.2241 21.8367C21.3118 21.8009 21.4054 21.7835 21.4995 21.7855C21.5936 21.7876 21.6864 21.809 21.7726 21.8486C21.8589 21.8881 21.9368 21.9451 22.0019 22.0162C22.0671 22.0873 22.1183 22.1711 22.1525 22.2629C22.1867 22.3546 22.2033 22.4526 22.2014 22.5511C22.1995 22.6496 22.179 22.7467 22.1412 22.8369C22.1033 22.9271 22.0489 23.0087 21.981 23.0769C20.1153 24.9571 17.6244 26.0053 15.0341 26Z" fill="white" />
    </g>
    <defs>
        <clipPath id="clip0">
            <rect width="30" height="30" fill="white" />
        </clipPath>
    </defs>
</svg>
