<svg width="30" height="30" viewBox="0 0 30 30" fill="none" xmlns="http://www.w3.org/2000/svg">
    <path d="M26.4 0.600006H3.60001C1.94581 0.600006 0.600006 1.94581 0.600006 3.60001V26.4C0.600006 28.0542 1.94581 29.4 3.60001 29.4H16.2V18H12.6V14.4H16.2V12C16.2 8.36101 19.161 5.40001 22.8 5.40001H24.6V9.00001H22.8C21.1458 9.00001 19.8 10.3458 19.8 12V14.4H24.5202L24.0702 18H19.8V29.4H26.4C28.0542 29.4 29.4 28.0542 29.4 26.4V3.60001C29.4 1.94581 28.0542 0.600006 26.4 0.600006ZM28.2 26.4C28.2 27.3924 27.3924 28.2 26.4 28.2H21V19.2H25.1298L25.8798 13.2H21V12C21 11.0076 21.8076 10.2 22.8 10.2H25.8V4.20001H22.8C18.4992 4.20001 15 7.69921 15 12V13.2H11.4V19.2H15V28.2H3.60001C2.60761 28.2 1.80001 27.3924 1.80001 26.4V3.60001C1.80001 2.60761 2.60761 1.80001 3.60001 1.80001H26.4C27.3924 1.80001 28.2 2.60761 28.2 3.60001V26.4Z" fill="white" />
</svg>
