<svg width="30" height="30" viewBox="0 0 30 30" fill="none" xmlns="http://www.w3.org/2000/svg">
    <g clipPath="url(#clip0)">
        <path fillRule="evenodd" clipRule="evenodd" d="M17.6593 26.0983C17.5918 26.0557 17.533 26.007 17.4805 25.952C17.2743 25.7345 17.2055 25.4569 17.2055 25.2294C17.2055 24.8668 17.218 23.6755 17.218 22.1978C17.218 21.2639 16.9068 20.7338 16.6443 20.5026C16.3418 20.2338 16.4993 19.7312 16.9005 19.685C19.1629 19.4224 21.4041 18.6261 21.4041 14.6918C21.4041 13.6042 21.0279 12.7266 20.4141 12.0415C20.2954 11.9077 20.2617 11.719 20.3279 11.5539C20.4016 11.3702 20.6704 10.5826 20.3816 9.46618L20.3092 9.24865C19.9567 9.27865 19.1992 9.45992 17.9642 10.3175C17.8493 10.3988 17.7043 10.4225 17.5693 10.3838C16.7568 10.1538 15.8781 10.0387 15.0006 10.035C14.1294 10.0387 13.2532 10.1525 12.4382 10.3838C12.3032 10.4225 12.1582 10.3988 12.0432 10.3188C10.8045 9.45992 10.0471 9.27865 9.6971 9.24865L9.6271 9.46618C9.33961 10.5826 9.6071 11.3714 9.68085 11.5577C9.74459 11.7215 9.71084 11.909 9.59335 12.0402C8.98088 12.7266 8.60589 13.6042 8.60589 14.6918C8.60589 18.5998 10.8245 19.4274 13.0945 19.6975C13.4944 19.745 13.6519 20.2463 13.3494 20.5138C13.1432 20.6963 12.9057 21.0714 12.8207 21.6965C12.7995 21.854 12.6995 21.9902 12.5557 22.0578C11.9045 22.364 9.97833 22.9916 8.81088 20.9464C8.80588 20.9376 8.68839 20.7276 8.47215 20.5126L8.69339 20.8251C8.84463 21.0626 8.99587 21.3539 9.13962 21.7352C9.11212 21.6364 9.59585 23.4767 12.2195 22.8916C12.5107 22.8253 12.7895 23.0479 12.7895 23.3467C12.792 24.248 12.8057 24.9869 12.8057 25.2294C12.8057 25.4632 12.7307 25.747 12.4895 25.987L12.3845 26.0745C12.137 26.2433 11.8345 26.2845 11.5145 26.2245L11.4495 26.207C6.98346 24.6806 3.77109 20.355 3.77109 15.2682C3.77109 8.92111 8.78713 3.75171 15.0006 3.75171C21.2129 3.75171 26.2402 8.91986 26.2402 15.2682C26.2402 20.355 23.029 24.6756 18.5655 26.207L18.5042 26.2233C18.1955 26.2845 17.9018 26.252 17.6593 26.0983ZM18.2992 25.3069L19.013 25.0294C22.7028 23.4217 25.3027 19.6637 25.3027 15.2682C25.3027 9.41617 20.6741 4.68933 15.0006 4.68933C9.32836 4.68933 4.70855 9.41492 4.70855 15.2682C4.70855 19.6637 7.30845 23.4254 10.9995 25.0294L11.7108 25.3044H11.842L11.8683 25.2294C11.8683 25.0269 11.8608 24.6068 11.8558 24.008L11.8395 23.908C9.35461 24.2093 8.49215 22.6178 8.29215 22.1378L8.25466 22.039C7.81343 20.8851 7.20595 20.6276 7.2972 20.6726L7.2322 20.6351C7.02096 20.4863 6.84846 20.3363 6.74222 20.1763C6.42223 19.695 6.72597 19.3224 7.05346 19.1949C7.2947 19.1024 7.58843 19.1111 7.59968 19.1111C8.96713 19.2074 9.64085 20.5101 9.6321 20.4926C10.2021 21.4902 11.012 21.5477 11.6258 21.3989L11.9533 21.2827L12.0107 21.0089C12.0632 20.8351 12.1257 20.6738 12.2082 20.5101L12.0295 20.4751C9.80334 20.005 7.66843 18.6786 7.66843 14.6918C7.66843 13.6992 7.92842 12.8341 8.3809 12.1028L8.72339 11.6452L8.67589 11.4764C8.53589 10.8989 8.43215 9.88123 8.91088 8.63107C8.96213 8.4998 9.06837 8.39729 9.20337 8.35354C9.36086 8.30103 10.1883 8.11976 11.8245 9.06863L12.4032 9.43742L13.5732 9.19614C14.0457 9.13238 14.5231 9.09988 14.9994 9.09613C15.4794 9.09988 15.9593 9.13238 16.4331 9.19614L17.6043 9.43742L18.1805 9.06988C19.8154 8.11976 20.6454 8.30228 20.8041 8.35354C20.9379 8.39729 21.0454 8.49855 21.0954 8.63107C21.5766 9.87998 21.4729 10.8976 21.3316 11.4777L21.2841 11.6452L21.6266 12.1028C22.0791 12.8341 22.3416 13.6992 22.3416 14.6918C22.3416 18.7048 20.1854 20.0075 17.9605 20.4663L17.7718 20.4963L17.9018 20.7426C18.0605 21.1439 18.1555 21.6302 18.1555 22.1978C18.1555 23.6755 18.143 24.8668 18.143 25.2294L18.1642 25.3082L18.2992 25.3069Z" fill="white" />
        <path fillRule="evenodd" clipRule="evenodd" d="M0 27.2597V2.74034C0 1.2289 1.22745 0 2.73989 0H27.2601C28.7713 0 30 1.2289 30 2.74034V27.2597C30 28.7723 28.7713 30 27.2601 30H2.73989C1.22745 30 0 28.7723 0 27.2597ZM29.0625 27.2597V2.74034C29.0625 1.74772 28.2526 0.937618 27.2601 0.937618H2.73989C1.74618 0.937618 0.937461 1.74772 0.937461 2.74034V27.2597C0.937461 28.2535 1.74618 29.0624 2.73989 29.0624H27.2601C28.2526 29.0624 29.0625 28.2535 29.0625 27.2597Z" fill="white" />
    </g>
    <defs>
        <clipPath id="clip0">
            <rect width="30" height="30" fill="white" />
        </clipPath>
    </defs>
</svg>
