<svg width="38" height="38" viewBox="0 0 38 38" fill="none" xmlns="http://www.w3.org/2000/svg">
    <g filter="url(#filter0_d)">
        <path d="M27.4375 29.5312H10.5625C7.1875 29.5312 4.46875 26.8125 4.46875 23.4375V6.5625C4.46875 3.1875 7.1875 0.46875 10.5625 0.46875H27.4375C30.8125 0.46875 33.5312 3.1875 33.5312 6.5625V23.4375C33.5312 26.8125 30.8125 29.5312 27.4375 29.5312ZM10.5625 1.40625C7.70312 1.40625 5.40625 3.70312 5.40625 6.5625V23.4375C5.40625 26.2969 7.70312 28.5938 10.5625 28.5938H27.4375C30.2969 28.5938 32.5938 26.2969 32.5938 23.4375V6.5625C32.5938 3.70312 30.2969 1.40625 27.4375 1.40625H10.5625Z" fill="white" />
        <path d="M19 22.5C14.875 22.5 11.5 19.125 11.5 15C11.5 10.875 14.875 7.5 19 7.5C23.125 7.5 26.5 10.875 26.5 15C26.5 19.125 23.125 22.5 19 22.5ZM19 8.4375C15.3906 8.4375 12.4375 11.3906 12.4375 15C12.4375 18.6094 15.3906 21.5625 19 21.5625C22.6094 21.5625 25.5625 18.6094 25.5625 15C25.5625 11.3906 22.6094 8.4375 19 8.4375Z" fill="white" />
        <path d="M27.4375 7.96875C26.6406 7.96875 26.0312 7.35938 26.0312 6.5625C26.0312 5.76562 26.6406 5.15625 27.4375 5.15625C28.2344 5.15625 28.8438 5.76562 28.8438 6.5625C28.8438 7.35938 28.2344 7.96875 27.4375 7.96875ZM27.4375 6.09375C27.1562 6.09375 26.9688 6.28125 26.9688 6.5625C26.9688 6.84375 27.1562 7.03125 27.4375 7.03125C27.7188 7.03125 27.9062 6.84375 27.9062 6.5625C27.9062 6.28125 27.7188 6.09375 27.4375 6.09375Z" fill="white" />
    </g>
    <defs>
        <filter id="filter0_d" x="0" y="0" width="38" height="38" filterUnits="userSpaceOnUse" color-interpolation-filters="sRGB">
            <feFlood flood-opacity="0" result="BackgroundImageFix" />
            <feColorMatrix in="SourceAlpha" type="matrix" values="0 0 0 0 0 0 0 0 0 0 0 0 0 0 0 0 0 0 127 0" />
            <feOffset dy="4" />
            <feGaussianBlur stdDeviation="2" />
            <feColorMatrix type="matrix" values="0 0 0 0 0 0 0 0 0 0 0 0 0 0 0 0 0 0 0.25 0" />
            <feBlend mode="normal" in2="BackgroundImageFix" result="effect1_dropShadow" />
            <feBlend mode="normal" in="SourceGraphic" in2="effect1_dropShadow" result="shape" />
        </filter>
    </defs>
</svg>
