<svg width="30" height="30" viewBox="0 0 30 30" fill="none" xmlns="http://www.w3.org/2000/svg">
    <g clip-path="url(#clip0)">
        <path fill-rule="evenodd" clip-rule="evenodd" d="M5.58477 22.9816V10.9476C5.58477 10.6901 5.79476 10.4788 6.0535 10.4788H9.96334C10.2208 10.4788 10.4321 10.6901 10.4321 10.9476V22.9816C10.4321 23.2404 10.2208 23.4504 9.96334 23.4504H6.0535C5.79476 23.4504 5.58477 23.2404 5.58477 22.9816ZM9.49461 22.5128V11.4164H6.52223V22.5128H9.49461ZM5.35478 7.22465C5.35478 5.77197 6.44849 4.67809 8.03467 4.67809C9.62835 4.67809 10.6571 5.78197 10.6896 7.21965C10.6896 8.64483 9.62335 9.77372 7.98842 9.77372C6.41099 9.77372 5.35478 8.63858 5.35478 7.22465ZM9.7521 7.2309C9.73085 6.30579 9.11213 5.6157 8.03467 5.6157C6.94097 5.6157 6.29224 6.31454 6.29224 7.22465C6.29224 8.11976 6.92972 8.8361 8.00217 8.8361C9.11838 8.8361 9.7521 8.11476 9.7521 7.2309Z" fill="white" />
        <path fill-rule="evenodd" clip-rule="evenodd" d="M12.1895 22.9816C12.1895 22.9691 12.2395 12.1803 12.1895 11.0789C12.177 10.8114 12.3907 10.5876 12.6582 10.5876H16.6518C16.9093 10.5876 17.1205 10.7989 17.1205 11.0564V11.4514L17.3318 11.2639C17.9917 10.7301 18.9205 10.3075 20.2516 10.3075C23.1653 10.3075 25.3177 12.2565 25.3177 16.1433V22.9829C25.3177 23.2417 25.1064 23.4517 24.849 23.4517H20.8541C20.5954 23.4517 20.3854 23.2417 20.3854 22.9829V16.6033C20.3854 15.1569 19.9404 14.3756 18.8317 14.3756C17.9817 14.3756 17.4593 14.9331 17.2168 15.5357C17.1493 15.6982 17.1205 15.9695 17.1205 16.3233V22.9829C17.1205 23.2417 16.9093 23.4517 16.6518 23.4517H12.6582C12.3982 23.4517 12.1882 23.2404 12.1895 22.9816ZM16.1831 22.5141V16.3233C16.1831 15.9657 16.2056 15.5244 16.3506 15.1794C16.6805 14.3543 17.478 13.4379 18.8317 13.4379C20.6666 13.4379 21.3229 14.9181 21.3229 16.6033V22.5141H24.3802V16.1433C24.3802 12.7141 22.5953 11.2452 20.2516 11.2452C19.1567 11.2452 18.4255 11.5814 17.9117 12.0003L17.468 12.4328L17.0843 12.9591C17.0118 13.1366 16.8443 13.2542 16.6305 13.2542C16.3306 13.2542 16.1343 13.0004 16.1556 12.7453L16.1831 12.6303V11.5252H13.1357L13.1369 11.594C13.1632 13.6717 13.1382 20.12 13.1282 22.2765L13.1269 22.5141H16.1831Z" fill="white" />
        <path fill-rule="evenodd" clip-rule="evenodd" d="M0 27.2597V2.74034C0 1.2289 1.22745 0 2.73989 0H27.2601C28.7713 0 30 1.2289 30 2.74034V27.2597C30 28.7723 28.7713 30 27.2601 30H2.73989C1.22745 30 0 28.7723 0 27.2597ZM29.0625 27.2597V2.74034C29.0625 1.74772 28.2526 0.937618 27.2601 0.937618H2.73989C1.74618 0.937618 0.937461 1.74772 0.937461 2.74034V27.2597C0.937461 28.2535 1.74618 29.0624 2.73989 29.0624H27.2601C28.2526 29.0624 29.0625 28.2535 29.0625 27.2597Z" fill="white" />
    </g>
    <defs>
        <clipPath id="clip0">
            <rect width="30" height="30" fill="white" />
        </clipPath>
    </defs>
</svg>
