<svg width="38" height="38" viewBox="0 0 38 38" fill="current" xmlns="http://www.w3.org/2000/svg">
    <g filter="url(#filter0_d)">
        <path d="M28.625 29.375H9.375C6.75 29.375 4.625 27.25 4.625 24.625V5.375C4.625 2.75 6.75 0.625 9.375 0.625H28.5C31.125 0.625 33.25 2.75 33.25 5.375V24.5C33.375 27.25 31.25 29.375 28.625 29.375ZM9.375 1.875C7.375 1.875 5.875 3.5 5.875 5.375V24.5C5.875 26.5 7.5 28 9.375 28H28.5C30.5 28 32 26.375 32 24.5V5.375C32 3.375 30.375 1.875 28.5 1.875H9.375Z" fill="current" />
        <path d="M19 23.875C13.25 23.875 8.875 21.125 8.875 17.5C8.875 17.125 9 16.625 9.125 16.25C8.625 15.625 8.375 14.875 8.375 14.125C8.375 12.25 9.875 10.75 11.75 10.75C12.75 10.75 13.75 11.25 14.375 12C17.25 11.125 20.875 11.125 23.75 12C24.375 11.25 25.375 10.75 26.375 10.75C28.25 10.75 29.75 12.25 29.75 14.125C29.75 14.875 29.5 15.625 29 16.25C29.125 16.625 29.25 17.125 29.25 17.5C29.125 21 24.75 23.875 19 23.875ZM11.625 11.875C10.375 11.875 9.5 12.875 9.5 14C9.5 14.625 9.75 15.125 10.125 15.625C10.375 15.75 10.375 16.125 10.25 16.375C10.125 16.75 10 17.125 10 17.5C10 20.25 14.125 22.625 18.875 22.625C23.625 22.625 27.75 20.25 27.75 17.5C27.75 17.125 27.625 16.75 27.5 16.375C27.375 16.125 27.5 15.875 27.625 15.625C28.125 15.25 28.25 14.625 28.25 14C28.25 12.75 27.25 11.875 26.125 11.875C25.375 11.875 24.625 12.25 24.25 12.875C24.125 13.125 23.75 13.25 23.5 13.125C20.625 12.125 16.875 12.125 14.125 13.125C13.875 13.25 13.5 13.125 13.375 12.875C13.125 12.25 12.5 11.875 11.625 11.875Z" fill="current" />
        <path d="M16.125 17.125C16.6773 17.125 17.125 16.6773 17.125 16.125C17.125 15.5727 16.6773 15.125 16.125 15.125C15.5727 15.125 15.125 15.5727 15.125 16.125C15.125 16.6773 15.5727 17.125 16.125 17.125Z" fill="current" />
        <path d="M21.875 17.125C22.4273 17.125 22.875 16.6773 22.875 16.125C22.875 15.5727 22.4273 15.125 21.875 15.125C21.3227 15.125 20.875 15.5727 20.875 16.125C20.875 16.6773 21.3227 17.125 21.875 17.125Z" fill="current" />
        <path d="M19 20.75C17.75 20.75 16.375 20.25 15.5 19.25C15.25 19.125 15.25 18.75 15.5 18.5C15.75 18.25 16.125 18.25 16.375 18.5C17.875 20 20.25 20 21.75 18.5C22 18.25 22.375 18.25 22.625 18.5C22.875 18.75 22.875 19.125 22.625 19.375C21.625 20.25 20.25 20.75 19 20.75Z" fill="current" />
        <path d="M19.25 12.25C18.75 12.125 18.625 11.875 18.625 11.5L19.5 7.12498C19.625 6.74998 19.875 6.62498 20.25 6.62498L22 6.99998C22.375 7.12498 22.5 7.37498 22.5 7.74998C22.375 8.12498 22.125 8.24998 21.75 8.24998L20.625 7.99998L19.875 11.75C19.875 12 19.5 12.25 19.25 12.25Z" fill="current" />
        <path d="M23.25 9.5C22.375 9.5 21.625 8.75 21.625 7.875C21.625 7 22.375 6.25 23.25 6.25C24.125 6.25 24.875 7 24.875 7.875C24.875 8.75 24.125 9.5 23.25 9.5ZM23.25 7.375C23 7.375 22.875 7.5 22.875 7.75C22.875 8 23 8.125 23.25 8.125C23.5 8.125 23.625 8 23.625 7.75C23.625 7.625 23.375 7.375 23.25 7.375Z" fill="current" />
    </g>
    <defs>
        <filter id="filter0_d" x="0" y="0" width="38" height="38" filterUnits="userSpaceOnUse" color-interpolation-filters="sRGB">
            <feFlood flood-opacity="0" result="BackgroundImageFix" />
            <feColorMatrix in="SourceAlpha" type="matrix" values="0 0 0 0 0 0 0 0 0 0 0 0 0 0 0 0 0 0 127 0" />
            <feOffset dy="4" />
            <feGaussianBlur stdDeviation="2" />
            <feColorMatrix type="matrix" values="0 0 0 0 0 0 0 0 0 0 0 0 0 0 0 0 0 0 0.25 0" />
            <feBlend mode="normal" in2="BackgroundImageFix" result="effect1_dropShadow" />
            <feBlend mode="normal" in="SourceGraphic" in2="effect1_dropShadow" result="shape" />
        </filter>
    </defs>
</svg>
